Red.Lights.2012.BDRiP.x264.AC3-BiGKATS


iMDB:  http://www.imdb.com/title/tt1748179/

Source:  Blu-ray.1080p.AVC.TrueHD.5.1.REMUX-FraMeSToR  -  MANY THANKX

Red.Lights.2012.BDRiP.x264.AC3-BiGKATS.mkv
Format                                   : Matroska
Format version                           : Version 2
File size                                : 2.50 GiB
Duration                                 : 1h 53mn
Overall bit rate mode                    : Variable
Overall bit rate                         : 3 141 Kbps
Encoded date                             : UTC 2013-01-19 05:30:13
Writing application                      : mkvmerge v5.8.0 ('No Sleep / Pillow') built on Sep  2 2012 15:37:04
Writing library                          : libebml v1.2.3 + libmatroska v1.3.0

Video
ID                                       : 1
Format                                   : AVC
Format/Info                              : Advanced Video Codec
Format profile                           : High@L4.1
Format settings, CABAC                   : Yes
Format settings, ReFrames                : 3 frames
Codec ID                                 : V_MPEG4/ISO/AVC
Duration                                 : 1h 53mn
Bit rate mode                            : Variable
Bit rate                                 : 2 691 Kbps
Maximum bit rate                         : 40.0 Mbps
Width                                    : 720 pixels
Height                                   : 304 pixels
Display aspect ratio                     : 2.35:1
Frame rate mode                          : Constant
Frame rate                               : 23.976 fps
Color space                              : YUV
Chroma subsampling                       : 4:2:0
Bit depth                                : 8 bits
Scan type                                : Progressive
Bits/(Pixel*Frame)                       : 0.513
Stream size                              : 2.09 GiB (84%)
Title                                    : Red.Lights.2012.BDRiP.x264.AC3-BiGKATS
Writing library                          : x264 core 129 r2245 bc13772


Audio
ID                                       : 2
Format                                   : AC-3
Format/Info                              : Audio Coding 3
Mode extension                           : CM (complete main)
Format settings, Endianness              : Big
Codec ID                                 : A_AC3
Duration                                 : 1h 53mn
Bit rate mode                            : Constant
Bit rate                                 : 448 Kbps
Channel(s)                               : 6 channels
Channel positions                        : Front: L C R, Side: L R, LFE
Sampling rate                            : 48.0 KHz
Bit depth                                : 16 bits
Compression mode                         : Lossy
Stream size                              : 365 MiB (14%)
Title                                    : 5.1
Language                                 : English
Default                                  : Yes
Forced                                   : No

Cast: Sigourney Weaver, Robert De Niro, Cillian Murphy

Plot: Psychologist Margaret Matheson and her assistant study paranormal activity, 
which leads them to investigate a world-renowned psychic who has resurfaced years 
after his toughest critic mysteriously passed away. 

Screens:
 
http://www.shotpix.com/images/14463075689713040762.png
 
http://www.shotpix.com/images/20466076111761700923.png
 
http://www.shotpix.com/images/19525510882781793019.png
 
http://www.shotpix.com/images/13742770996417764706.png
 
http://www.shotpix.com/images/58430547261642447750.png
